<svg fill="none" height="301" viewBox="0 0 301 301" width="301" xmlns="http://www.w3.org/2000/svg"><g clip-rule="evenodd" fill="#000" fill-rule="evenodd"><path d="m147.09 282.918a6.866 6.866 0 0 0 6.123.008l112.487-55.825a6.868 6.868 0 0 0 -6.107-12.304l-109.423 54.305-104.831-52.373v-122.064l104.986-63.27 108.986 59.56a6.869 6.869 0 0 0 6.587-12.054l-112.447-61.451a6.869 6.869 0 0 0 -6.839.144l-111.686 67.309a6.868 6.868 0 0 0 -3.324 5.882v130.19a6.869 6.869 0 0 0 3.8 6.145z"/><path d="m144.247 244.902a5.494 5.494 0 0 0 4.966-.081l74.504-39.294 37.518 19.267a5.495 5.495 0 0 0 5.02-9.776l-30.921-15.879 31.082-17.288a5.496 5.496 0 0 0 -.054-9.634l-33.459-18.118 33.394-17.514a5.495 5.495 0 0 0 .037-9.712l-33.244-17.756 33.282-18.116a5.494 5.494 0 0 0 2.199-7.453 5.493 5.493 0 0 0 -7.452-2.199l-39.631 21.572-66.259-35.389a5.494 5.494 0 0 0 -5.358.101l-75.16 43.872a5.495 5.495 0 0 0 .366 9.686l32.47 15.802-32.848 19.29a5.494 5.494 0 0 0 .367 9.673l33.012 16.163-33.365 19.46a5.494 5.494 0 0 0 .366 9.687zm-24.765-69.435-30.402-14.885 63.67-37.39 99.576 53.921-28.734 15.983-68.422-35.485a5.494 5.494 0 0 0 -5.298.131zm92.345 23.907-59.031-30.615-63.655 37.127 57.408 27.916zm-92.9-69.063-29.793-14.5 63.626-37.14 99.24 53.004-30.738 16.12-66.005-35.742a5.494 5.494 0 0 0 -5.399.093z"/></g></svg>