<svg fill="none" height="46" viewBox="0 0 221 46" width="221" xmlns="http://www.w3.org/2000/svg" xmlns:xlink="http://www.w3.org/1999/xlink"><linearGradient id="a"><stop offset="0" stop-color="#0c52b3"/><stop offset="1" stop-color="#00bec9"/></linearGradient><linearGradient id="b" gradientUnits="userSpaceOnUse" x1="60.6693" x2="220.796" xlink:href="#a" y1="23.0479" y2="23.0479"/><linearGradient id="c" gradientUnits="userSpaceOnUse" x1="60.6694" x2="220.796" xlink:href="#a" y1="23.0479" y2="23.0479"/><linearGradient id="d" gradientUnits="userSpaceOnUse" x1="44" x2="25" y1="10.5" y2="22.5"><stop offset="0" stop-color="#01abe7"/><stop offset="1" stop-color="#071e59"/></linearGradient><linearGradient id="e" gradientUnits="userSpaceOnUse" x1="8.5" x2="19.5" y1="36" y2="20.5"><stop offset="0" stop-color="#10baf4"/><stop offset="1" stop-color="#071e59"/></linearGradient><radialGradient id="f" cx="0" cy="0" gradientTransform="matrix(14.42922365 -35.36849653 55.371781 22.58992862 22 23.5)" gradientUnits="userSpaceOnUse" r="1"><stop offset=".0185385" stop-color="#00c2ff"/><stop offset=".583814" stop-color="#063c77"/></radialGradient><clipPath id="g"><path d="m0 0h221v46h-221z"/></clipPath><g clip-path="url(#g)"><path clip-rule="evenodd" d="m203.23 30.6198h10.346l1.712 4.95h5.508l-9.341-26.01499h-6.067l-8.154 22.70849-4.263-7.2247c1.96-.5211 3.436-1.4639 4.429-2.8285.992-1.3895 1.488-2.9402 1.488-4.6522 0-1.4887-.359-2.8285-1.079-4.0195-.695-1.2157-1.749-2.171-3.164-2.8657-1.414-.71956-3.126-1.07932-5.136-1.07932h-9.75v25.97772h5.21v-10.1231h2.456l5.732 10.1231h6.029l-.001-.0013h2.333zm5.173-15.0358 3.759 10.8675h-7.518zm-19.08 5.9562h-4.354v-7.6296h4.354c1.415 0 2.469.3349 3.164 1.0049.695.6451 1.042 1.5631 1.042 2.754 0 1.2158-.347 2.1711-1.042 2.8658-.695.6699-1.749 1.0049-3.164 1.0049z" fill="url(#b)" fill-rule="evenodd"/><path d="m167.043 35.9053c-1.985 0-3.771-.4342-5.359-1.3026-1.588-.8932-2.841-2.1462-3.759-3.7589-.894-1.6128-1.34-3.4737-1.34-5.5826 0-2.109.459-3.9699 1.377-5.5827.943-1.6127 2.22-2.8533 3.833-3.7217 1.613-.8932 3.412-1.3398 5.397-1.3398s3.784.4466 5.396 1.3398c1.613.8684 2.878 2.109 3.796 3.7217.943 1.6128 1.415 3.4737 1.415 5.5827 0 2.1089-.484 3.9698-1.452 5.5826-.943 1.6127-2.233 2.8657-3.87 3.7589-1.613.8684-3.424 1.3026-5.434 1.3026zm0-4.5405c.943 0 1.824-.2233 2.642-.6699.844-.4714 1.514-1.1662 2.01-2.0842s.744-2.0345.744-3.3495c0-1.9602-.521-3.4613-1.563-4.5034-1.017-1.0669-2.27-1.6003-3.759-1.6003-1.488 0-2.741.5334-3.759 1.6003-.992 1.0421-1.488 2.5432-1.488 4.5034 0 1.9601.484 3.4736 1.451 4.5405.993 1.0421 2.233 1.5631 3.722 1.5631z" fill="url(#c)"/><g fill="url(#b)"><path d="m149.912 18.1526c.67-1.0917 1.538-1.9477 2.605-2.568 1.092-.6203 2.332-.9304 3.722-.9304v5.4709h-1.377c-1.638 0-2.878.3846-3.722 1.1538-.819.7691-1.228 2.109-1.228 4.0195v10.272h-5.211v-20.6185h5.211z"/><path d="m138.846 12.4956c-.918 0-1.687-.2853-2.307-.856-.596-.5955-.893-1.3274-.893-2.19584 0-.8684.297-1.58794.893-2.15861.62-.59547 1.389-.89321 2.307-.89321s1.675.29774 2.271.89321c.62.57067.93 1.29021.93 2.15861 0 .86844-.31 1.60034-.93 2.19584-.596.5707-1.353.856-2.271.856zm2.568 2.4563v20.6185h-5.21v-20.6185z"/><path d="m134.262 24.8145c0 .7444-.05 1.4143-.149 2.0098h-15.073c.124 1.4887.645 2.6548 1.563 3.4984s2.047 1.2654 3.387 1.2654c1.935 0 3.312-.8312 4.131-2.4936h5.62c-.596 1.985-1.737 3.6225-3.424 4.9127-1.688 1.2654-3.759 1.8981-6.216 1.8981-1.985 0-3.771-.4342-5.359-1.3026-1.563-.8932-2.791-2.1462-3.685-3.7589-.868-1.6128-1.302-3.4737-1.302-5.5826 0-2.1338.434-4.0071 1.302-5.6199.869-1.6127 2.085-2.8533 3.648-3.7217s3.362-1.3026 5.396-1.3026c1.96 0 3.71.4218 5.248 1.2654 1.563.8436 2.766 2.0469 3.61 3.6101.868 1.5383 1.303 3.3123 1.303 5.322zm-5.397-1.4887c-.025-1.3398-.509-2.4067-1.451-3.2006-.943-.8188-2.097-1.2282-3.462-1.2282-1.29 0-2.381.397-3.275 1.1909-.868.7692-1.402 1.8485-1.6 3.2379z"/><path d="m96.9425 17.9293c.6699-.9428 1.5879-1.7244 2.7541-2.3447 1.1914-.6451 2.5434-.9676 4.0564-.9676 1.762 0 3.35.4342 4.764 1.3026 1.439.8684 2.568 2.109 3.387 3.7217.843 1.588 1.265 3.4364 1.265 5.5454s-.422 3.9823-1.265 5.6198c-.819 1.6128-1.948 2.8658-3.387 3.759-1.414.8932-3.002 1.3398-4.764 1.3398-1.513 0-2.853-.3101-4.0192-.9304-1.1414-.6203-2.0718-1.4019-2.7913-2.3447v12.7656h-5.2105v-30.4439h5.2105zm10.9045 7.2574c0-1.2406-.26-2.3075-.781-3.2007-.497-.918-1.167-1.6127-2.01-2.0842-.819-.4714-1.712-.7071-2.68-.7071-.943 0-1.836.2481-2.6794.7444-.8188.4714-1.4887 1.1661-2.0098 2.0841-.4962.9181-.7443 1.9974-.7443 3.238 0 1.2405.2481 2.3198.7443 3.2379.5211.918 1.191 1.6251 2.0098 2.1214.8434.4714 1.7364.7071 2.6794.7071.968 0 1.861-.2481 2.68-.7444.843-.4962 1.513-1.2033 2.01-2.1214.521-.918.781-2.0097.781-3.2751z"/><path d="m82.881 30.6204h-10.3464l-1.712 4.95h-5.471l9.3416-26.01498h6.0664l9.3416 26.01498h-5.5082zm-1.4143-4.1683-3.7589-10.8675-3.759 10.8675z"/></g><path d="m45.6597 14.4335c.0613 2.323-.4256 4.5336-1.3437 6.5091 2.9583 1.401 4.9983 4.3642 4.9983 7.7933 0 4.7797-3.9636 8.6544-8.8529 8.6544h-12.0097c-.5434 1.0668-1.2282 2.084-2.0562 3.0255-1.3496 1.5346-2.9506 2.7212-4.6883 3.5519h18.7542c8.6052 0 15.5812-6.8195 15.5812-15.2318 0-6.631-4.3343-12.2723-10.3847-14.3641z" fill="#02e3f0"/><path d="m37.0037 12.2066c1.5072.2222 3.0971-.2436 4.2573-1.3975.7225-.7185 1.1767-1.60297 1.3626-2.52999 1.0491 1.96119 1.6473 4.19809 1.6565 6.57399.0298 7.8041-6.3069 14.1547-14.1537 14.1844-3.9591.015-7.5461-1.582-10.1325-4.1706l4.784-4.7581c1.3559 1.3649 3.2412 2.2077 5.3228 2.1999 4.1102-.0156 7.4294-3.3421 7.4138-7.43-.0037-.9429-.1844-1.8439-.5108-2.6721z" fill="url(#d)"/><path d="m9.65 35.5167c-3.00001-2.7637-3.1969-7.422-.43244-10.4266 2.76254-3.0025 7.44094-3.2214 10.47444-.4998l4.5675-4.9641c-5.7901-5.2305-14.74801-4.8228-20.03313.9213-5.28701 5.7462-4.900422 14.6608.85616 19.9333z" fill="url(#e)"/><path d="m19.6742 24.5743c3.0001 2.7636 3.197 7.422.4325 10.4266-2.7626 3.0025-7.441 3.2214-10.47449.4998l-4.5675 4.9641c5.79009 5.2305 14.74809 4.8228 20.03319-.9213 5.287-5.7461 4.9004-14.6608-.8562-19.9333z" fill="#10baf4"/><path d="m15.975 12.5521c-.7694 4.6785.8662 9.1956 4.0046 12.3034l4.7844-4.7584c-1.6534-1.6285-2.5163-4.0013-2.1121-6.4588.6634-4.03444 4.4893-6.76999 8.5457-6.11017 1.6155.26271 3.0237 1.02426 4.0918 2.10072.0182.01912.0378.03667.0565.05525 1.3211 1.3139 3.4631 1.3139 4.7841 0 1.2791-1.27213 1.3197-3.30932.1221-4.63014l.0332.03295c-.0211-.02197-.042-.04376-.0632-.06556-.0299-.0321-.0607-.06404-.0921-.0953-.011-.01098-.0224-.02196-.0335-.03295-2.0384-2.05242-4.7252-3.50434-7.8068-4.005659-7.744-1.259634-15.0484 3.962919-16.3147 11.664659z" fill="url(#f)"/></g></svg>