<svg fill="none" height="46" viewBox="0 0 94 46" width="94" xmlns="http://www.w3.org/2000/svg" xmlns:xlink="http://www.w3.org/1999/xlink"><linearGradient id="a" gradientUnits="userSpaceOnUse" x1="0" x2="0" y1="0" y2="46"><stop offset="0" stop-color="#00b8f1"/><stop offset=".02" stop-color="#01b6f0"/><stop offset=".31" stop-color="#0d90d9"/><stop offset=".58" stop-color="#1775c8"/><stop offset=".82" stop-color="#1c65bf"/><stop offset="1" stop-color="#1e5fbb"/></linearGradient><clipPath id="b"><path d="m0 0h94v46h-94z"/></clipPath><g clip-path="url(#b)" clip-rule="evenodd" fill-rule="evenodd"><path d="m0 46h47.2621l46.2552-46h-93.5173z" fill="url(#a)"/><path d="m55.2776 8.36152h-9.1865v21.94388l-8.0235-21.95071h-7.9556l-6.8491 18.35171c-.7331-4.6265-5.4847-6.2248-9.2408-7.423-2.4754-.798-5.10234-1.9734-5.0684-3.2738.02036-1.064 1.4096-2.0462 4.1588-1.9052 1.8486.0978 3.4777.2478 6.7224 1.8188l3.1904-5.5815c-2.9709-1.51184-7.0573-2.46899-10.4128-2.47354h-.0204c-3.90993 0-7.16819 1.27317-9.1865 3.37164-1.39762 1.4416-2.18507 3.3711-2.19707 5.3836-.05204 2.8306.98201 4.8426 3.15418 6.4341 1.83278 1.3504 4.17691 2.2257 6.24499 2.8691 2.5501.7935 4.6317 1.4846 4.6068 2.9556-.0143.5423-.2298 1.0596-.6041 1.4505-.6358.6593-1.6133.9094-2.9618.9321-2.59987.0546-4.52541-.3546-7.60492-2.1803l-2.83515 5.6633c3.17391 1.8101 6.75884 2.767 10.40837 2.7783h.4774c3.2221-.0569 5.8241-.9799 7.9013-2.6623.1199-.0932.2263-.191.3371-.291l-.9322 2.4667h8.3335l1.4006-4.2787c1.5818.5273 3.2389.7907 4.9055.7798 1.6246.008 3.2404-.2414 4.7878-.7389l1.3576 4.2378h13.6078v-8.8666h2.9663c7.175 0 11.4175-3.6718 11.4175-9.8216 0-6.8455-4.1226-9.98978-12.8995-9.98978zm-21.2285 18.78828c-1.0035.0061-1.9999-.1695-2.9415-.5184l2.9121-9.2281h.0498l2.8623 9.2554c-.9265.3257-1.9011.4917-2.8827.4911zm21.767-5.3041h-2.0228v-7.448h2.0228c2.6994 0 4.8512.9094 4.8512 3.6694 0 2.8646-2.1518 3.7672-4.8512 3.7672z" fill="#fff"/></g></svg>