<svg fill="none" height="39" viewBox="0 0 40 39" width="40" xmlns="http://www.w3.org/2000/svg" xmlns:xlink="http://www.w3.org/1999/xlink"><clipPath id="a"><path d="m0 0h40v39h-40z"/></clipPath><g clip-path="url(#a)"><path clip-rule="evenodd" d="m19.9404 0c-11.02652 0-19.9404 8.9375-19.9404 19.9944 0 8.8384 5.71143 16.3199 13.6347 18.9678.9906.1991 1.3535-.4302 1.3535-.9595 0-.4636-.0327-2.0524-.0327-3.7079-5.54693 1.192-6.70203-2.3835-6.70203-2.3835-.89143-2.3172-2.21225-2.9128-2.21225-2.9128-1.81551-1.2248.13225-1.2248.13225-1.2248 2.01388.1324 3.07061 2.0524 3.07061 2.0524 1.78242 3.0452 4.65472 2.1848 5.81022 1.655.1649-1.291.6935-2.1848 1.2547-2.6812-4.4241-.4636-9.0788-2.1848-9.0788-9.865 0-2.1848.79184-3.9723 2.04653-5.3625-.19795-.4964-.89142-2.5492.19837-5.29668 0 0 1.6837-.52975 5.48 2.05238 1.6253-.43767 3.3015-.66032 4.9853-.66219 1.6837 0 3.4.23196 4.9849.66219 3.7967-2.58213 5.4804-2.05238 5.4804-2.05238 1.0898 2.74748.3959 4.80028.198 5.29668 1.2877 1.3902 2.0469 3.1777 2.0469 5.3625 0 7.6802-4.6547 9.3681-9.1118 9.865.7265.6288 1.3534 1.8204 1.3534 3.7074 0 2.6813-.0326 4.8332-.0326 5.495 0 .5297.3633 1.159 1.3535.9603 7.9232-2.6487 13.6347-10.1298 13.6347-18.9682.0326-11.0569-8.9139-19.9944-19.9074-19.9944z" fill="#333" fill-rule="evenodd"/></g></svg>