<svg fill="none" height="89" viewBox="0 0 113 89" width="113" xmlns="http://www.w3.org/2000/svg" xmlns:xlink="http://www.w3.org/1999/xlink"><radialGradient id="a" cx="0" cy="0" gradientTransform="matrix(-46.99992103 29.50014414 -25.35850274 -40.40141704 93 25.5)" gradientUnits="userSpaceOnUse" r="1"><stop offset="0" stop-color="#00c2ff"/><stop offset="1" stop-color="#071e59"/></radialGradient><radialGradient id="b" cx="0" cy="0" gradientTransform="matrix(47.16250857 -37.73580085 37.15196867 46.4328304 47.6351 37.2037)" gradientUnits="userSpaceOnUse" r="1"><stop offset="0" stop-color="#00c2ff"/><stop offset=".486827" stop-color="#01ace9"/><stop offset="1" stop-color="#071e59"/></radialGradient><linearGradient id="c"><stop offset="0" stop-color="#00c2ff"/><stop offset=".413758" stop-color="#00c2ff"/><stop offset="1" stop-color="#071e59"/></linearGradient><radialGradient id="d" cx="0" cy="0" gradientTransform="matrix(25.98195326 -24.27540413 25.851628 27.6689849 36.2592 51.4815)" gradientUnits="userSpaceOnUse" r="1" xlink:href="#c"/><radialGradient id="e" cx="0" cy="0" gradientTransform="matrix(25.98165668 -24.27572156 25.85203431 27.66874213 36.2604 51.4809)" gradientUnits="userSpaceOnUse" r="1" xlink:href="#c"/><radialGradient id="f" cx="0" cy="0" gradientTransform="matrix(17.99998747 -43.50004363 40.64788016 16.8197839 11.5 81)" gradientUnits="userSpaceOnUse" r="1"><stop offset="0" stop-color="#03aeea"/><stop offset=".413758" stop-color="#00c2ff"/><stop offset="1" stop-color="#071e59"/></radialGradient><radialGradient id="g" cx="0" cy="0" gradientTransform="matrix(-26.55688155 -79.69822635 69.66564819 -23.21384618 39.2417 62.2227)" gradientUnits="userSpaceOnUse" r="1"><stop offset="0" stop-color="#1fc9ff"/><stop offset=".486827" stop-color="#01ace9"/><stop offset="1" stop-color="#071e59"/></radialGradient><radialGradient id="h" cx="0" cy="0" gradientTransform="matrix(28.50001575 -71.50002206 67.92059928 27.07325248 44 46)" gradientUnits="userSpaceOnUse" r="1"><stop offset=".0185385" stop-color="#00c2ff"/><stop offset=".583814" stop-color="#063c77"/></radialGradient><radialGradient id="i" cx="0" cy="0" gradientTransform="matrix(-19.9548395 22.53660716 -22.74010102 -20.13502133 59.4334 28.5907)" gradientUnits="userSpaceOnUse" r="1"><stop offset=".0185385" stop-color="#00c2ff"/><stop offset=".583814" stop-color="#071e59"/></radialGradient><clipPath id="j"><path d="m0 0h113v89h-113z"/></clipPath><g clip-path="url(#j)"><path d="m91.1258 27.8636c.1238 4.713-.8587 9.198-2.7114 13.2062 5.9694 2.8423 10.0859 8.8544 10.0859 15.8115 0 9.6975-7.998 17.5588-17.864 17.5588h-24.2337c-1.0965 2.1643-2.4784 4.2282-4.1491 6.1383-2.7234 3.1136-5.954 5.5209-9.4605 7.2064h37.8433c17.3642 0 31.4407-13.836 31.4407-30.9035 0-13.4535-8.746-24.899-20.9548-29.143z" fill="#02e3f0"/><path d="m73.6593 23.3453c3.0412.4509 6.2495-.4942 8.5905-2.8352 1.458-1.4579 2.3745-3.2523 2.7496-5.1331 2.117 3.9791 3.3241 8.5173 3.3425 13.3378.0603 15.8336-12.7264 28.7181-28.56 28.7784-7.9889.0304-15.2271-3.2098-20.446-8.4617l9.6535-9.6535c2.736 2.7692 6.5402 4.4792 10.7405 4.4632 8.2938-.0316 14.9916-6.7806 14.96-15.0744-.0073-1.913-.372-3.7412-1.0306-5.4215z" fill="url(#a)"/><path d="m9.08594 80.5605c.01593.0146.03189.0293.04786.0439.01604.0146.03209.0293.04815.0439z" fill="url(#b)"/><path d="m48.0726 38.5155c-.0159-.0146-.0319-.0292-.0478-.0438-.0161-.0147-.0321-.0294-.0482-.044z" fill="url(#d)"/><path d="m50.012 78.7656-.3831.4186c.0644-.0691.1286-.1385.1925-.2084.064-.0698.1275-.1399.1906-.2102z" fill="url(#e)"/><path d="m18.4634 70.6387c-6.0536-5.6071-6.4509-15.0584-.8726-21.1542 5.5745-6.0917 15.0148-6.5359 21.136-1.0141l9.2165-10.0716c-11.6836-10.6119-29.7594-9.7848-40.42402 1.8692-10.66842 11.6583-9.88835 29.745 1.72762 40.4423z" fill="url(#f)"/><path d="m38.6908 48.438c6.0537 5.6071 6.451 15.0584.8727 21.1542-5.5746 6.0917-15.0149 6.5359-21.136 1.0141l-9.21656 10.0716c11.68366 10.6119 29.75946 9.7849 40.42406-1.8692 10.6684-11.6582 9.8883-29.745-1.7276-40.4423z" fill="url(#g)"/><path d="m31.2263 24.0465c-1.5526 9.492 1.748 18.6567 8.0807 24.962l9.6542-9.6542c-3.3362-3.304-5.0774-8.1181-4.2618-13.1042 1.3387-8.1853 9.0587-13.7354 17.244-12.3967 3.2598.533 6.1013 2.0781 8.2566 4.2621.0367.0388.0764.0744.1141.1121 2.6657 2.6657 6.9879 2.6657 9.6536 0 2.581-2.581 2.6629-6.7142.2464-9.39398l.0669.06684c-.0425-.04456-.0847-.08878-.1275-.13301-.0604-.06513-.1224-.12992-.1858-.19334-.0223-.02228-.0453-.04457-.0676-.06685-4.1133-4.16411-9.5349-7.10987-15.7531-8.12699-15.6263-2.55564-30.3654 8.04026-32.9207 23.66623z" fill="url(#h)"/><path d="m79.3594 49.3725c.3037-.2907.601-.5879.892-.892z" fill="url(#i)"/></g></svg>