<svg fill="none" height="323" viewBox="0 0 322 323" width="322" xmlns="http://www.w3.org/2000/svg" xmlns:xlink="http://www.w3.org/1999/xlink"><linearGradient id="a"><stop offset="0" stop-color="#fff"/><stop offset="1" stop-color="#439246"/></linearGradient><linearGradient id="b" gradientUnits="userSpaceOnUse" x1="239.57" x2="174.075" xlink:href="#a" y1="110.714" y2="205.455"/><linearGradient id="c" gradientUnits="userSpaceOnUse" x1="235.479" x2="150.083" xlink:href="#a" y1="145.405" y2="299.227"/><linearGradient id="d" gradientUnits="userSpaceOnUse" x1="49.7987" x2="124.559" xlink:href="#a" y1="160.303" y2="281.373"/><linearGradient id="e" gradientUnits="userSpaceOnUse" x1="75.1949" x2="168.121" xlink:href="#a" y1="216.138" y2="394.367"/><mask id="f" height="305" maskUnits="userSpaceOnUse" width="311" x="4" y="9"><path clip-rule="evenodd" d="m156.664 9.95179c1.961-.94776 4.244-.94777 6.205 0l118.665 57.36971c1.961.9478 3.385 2.7401 3.869 4.8697l29.308 128.9078c.484 2.13-.024 4.365-1.381 6.073l-82.119 103.376c-1.357 1.708-3.414 2.703-5.59 2.703h-131.7088c-2.1761 0-4.2335-.995-5.5901-2.703l-82.11911-103.376c-1.35661-1.708-1.86478-3.943-1.38059-6.073l29.308-128.9078c.4842-2.1296 1.908-3.9219 3.8682-4.8697z" fill="#fff" fill-rule="evenodd"/></mask><path clip-rule="evenodd" d="m156.664 9.95179c1.961-.94776 4.244-.94777 6.205 0l118.665 57.36971c1.961.9478 3.385 2.7401 3.869 4.8697l29.308 128.9078c.484 2.13-.024 4.365-1.381 6.073l-82.119 103.376c-1.357 1.708-3.414 2.703-5.59 2.703h-131.7088c-2.1761 0-4.2335-.995-5.5901-2.703l-82.11911-103.376c-1.35661-1.708-1.86478-3.943-1.38059-6.073l29.308-128.9078c.4842-2.1296 1.908-3.9219 3.8682-4.8697z" fill="#009f76" fill-rule="evenodd"/><g mask="url(#f)"><path clip-rule="evenodd" d="m-59.5167 203.675 173.2857-105.6689 116.716 119.9439-138.4936 122.628z" fill="#000" fill-rule="evenodd" opacity=".289629"/></g><g clip-rule="evenodd" fill-rule="evenodd"><path d="m202.474 93.8447c.498 1.2511.764 2.6023.764 3.9894v49.8809c0 3.631-1.824 7.018-4.851 9.007l-36.075 23.711c-3.568 2.346-8.181 2.346-11.749 0l-36.075-23.711c-2.518-1.654-4.203-4.276-4.698-7.202z" fill="url(#b)"/><path d="m202.963 156.713c-.825 1.423-1.977 2.658-3.391 3.587l-36.075 23.711c-3.568 2.346-8.181 2.346-11.749 0l-36.075-23.711c-3.027-1.989-4.85-5.376-4.85-9.008v-49.88c0-1.39.267-2.7435.766-3.9967z" fill="url(#c)"/><path d="m86.881 131.967c-.701 1.445-1.0828 3.052-1.0828 4.715v73.701c0 3.846 2.0441 7.401 5.3623 9.324l63.5785 36.85c3.318 1.924 7.407 1.924 10.725 0l63.578-36.85c2.271-1.316 3.945-3.396 4.776-5.81z" fill="url(#d)"/><path d="m87.5899 216.34c.9005 1.362 2.1128 2.522 3.5706 3.367l63.5785 36.85c3.318 1.923 7.407 1.923 10.725 0l63.579-36.85c3.318-1.923 5.362-5.478 5.362-9.324v-73.702c0-1.368-.259-2.7-.742-3.934z" fill="url(#e)"/></g></svg>