<svg enable-background="new 0 0 706 800" height="800" viewBox="0 0 706 800" width="706" xmlns="http://www.w3.org/2000/svg" xmlns:xlink="http://www.w3.org/1999/xlink"><linearGradient id="a" gradientUnits="userSpaceOnUse" x1="692.0388" x2="363.5422" y1="601.8017" y2="397.3944"><stop offset=".5274" stop-color="#53c9eb"/><stop offset="1" stop-color="#b3e3f5"/></linearGradient><linearGradient id="b" gradientUnits="userSpaceOnUse" x1="3.3936" x2="352.9936" y1="499.5999" y2="499.5999"><stop offset="0" stop-color="#83c775"/><stop offset="1" stop-color="#b4d451"/></linearGradient><linearGradient id="c" gradientUnits="userSpaceOnUse" x1="359.0891" x2="346.898" y1="1.7866" y2="399.8133"><stop offset=".0024966" stop-color="#4f60ac"/><stop offset=".4062" stop-color="#5a8ecb"/><stop offset="1" stop-color="#ded1e7"/></linearGradient><path clip-rule="evenodd" d="m702.6 200.8-349.6 199.2v398.4l349.6-199.6z" fill="url(#a)" fill-rule="evenodd"/><path clip-rule="evenodd" d="m353 400-349.6-199.2v398.4l349.6 199.2z" fill="url(#b)" fill-rule="evenodd"/><path clip-rule="evenodd" d="m353 400-349.6-199.2 349.6-199.2 349.6 199.2z" fill="url(#c)" fill-rule="evenodd"/><g fill="#fff"><path d="m353 200.8 174.8 99.6v199.2l-174.8 99.6-174.8-99.6v-199.2z" fill-opacity=".8538"/><path clip-rule="evenodd" d="m178.2 499.6v-24.6l-174.8 98.8v25.4l21.7 12.4 176.6-98.6z" fill-opacity=".8955" fill-rule="evenodd"/><path clip-rule="evenodd" d="m353 200.8 22.4 12.8v-199.2l-22.4-12.8-22.5 12.8.1 199.2z" fill-opacity=".8955" fill-rule="evenodd"/><path clip-rule="evenodd" d="m527.8 499.6v-24.6l174.8 99.7v24.2l-22.2 12.6-174.9-99.2z" fill-opacity=".8955" fill-rule="evenodd"/></g></svg>